<?xml version="1.0" standalone="no"?>
 <!DOCTYPE svg PUBLIC "-//W3C//DTD SVG 1.1//EN" 
 "http://www.w3.org/Graphics/SVG/1.1/DTD/svg11.dtd"> 
<svg
  xmlns:svg="http://www.w3.org/2000/svg"
  xmlns="http://www.w3.org/2000/svg"
  xmlns:xlink="http://www.w3.org/1999/xlink"
  version="1.1"
  width="297.0022mm" height="210.0072mm" viewBox="0.0000 0.0000 297.0022 210.0072">
<title>SVG Image created as Police_lights-B_Cu.svg date 2025/03/06 14:40:20 </title>
  <desc>Image generated by PCBNEW </desc>
<g style="fill:#000000; fill-opacity:1.0000;stroke:#000000; stroke-opacity:1.0000;
stroke-linecap:round; stroke-linejoin:round;"
 transform="translate(0 0) scale(1 1)">
<path style="fill:#000000; fill-opacity:1.0000; stroke:none;fill-rule:evenodd;"
d="M 204.6224,58.4671
204.6190,58.3772
204.6087,58.2886
204.5979,58.2304
204.5764,58.1458
204.5486,58.0652
204.5265,58.0137
204.4852,57.9349
204.4374,57.8626
204.4132,57.8314
204.1508,57.9788
204.2015,58.0494
204.2437,58.1273
204.2745,58.2042
204.2975,58.2849
204.3120,58.3669
204.3179,58.4502
204.3181,58.4671
204.3129,58.5576
204.2954,58.6414
204.2654,58.7087
204.2060,58.7704
204.1219,58.7946
204.1159,58.7947
204.1146,58.7947
204.0334,58.7761
204.0025,58.7515
203.9585,58.6795
203.9448,58.6381
203.9258,58.5554
203.9137,58.4858
203.8989,58.3988
203.8827,58.3172
203.8759,58.2856
203.8508,58.2004
203.8156,58.1211
203.8036,58.0996
203.7523,58.0318
203.6847,57.9765
203.6625,57.9630
203.5850,57.9316
203.4988,57.9156
203.4175,57.9115
203.4162,57.9115
203.3274,57.9172
203.2337,57.9384
203.1507,57.9751
203.0785,58.0274
203.0334,58.0743
202.9807,58.1519
202.9458,58.2287
202.9204,58.3150
202.9045,58.4107
202.8986,58.4977
202.8981,58.5343
202.9026,58.6204
202.9161,58.7074
202.9386,58.7953
202.9441,58.8129
202.9729,58.8912
203.0121,58.9745
203.0590,59.0540
203.0745,59.0770
203.3440,58.9425
203.2971,58.8680
203.2592,58.7910
203.2389,58.7382
203.2153,58.6533
203.2033,58.5650
203.2024,58.5343
203.2071,58.4494
203.2252,58.3644
203.2506,58.3076
203.3085,58.2475
203.3859,58.2275
203.3872,58.2275
203.4699,58.2443
203.5105,58.2752
203.5541,58.3461
203.5724,58.3994
203.5932,58.4843
203.6102,58.5646
203.6282,58.6498
203.6495,58.7344
203.6562,58.7586
203.6847,58.8400
203.7223,58.9151
203.7347,58.9354
203.7911,59.0034
203.8590,59.0537
203.8755,59.0629
203.9568,59.0938
204.0395,59.1077
204.1076,59.1107
204.1101,59.1107
204.1976,59.1047
204.2901,59.0828
204.3721,59.0448
204.4436,58.9906
204.4883,58.9421
204.5406,58.8619
204.5752,58.7826
204.6003,58.6935
204.6160,58.5947
204.6219,58.5049
Z" /> 
<path style="fill:#000000; fill-opacity:1.0000; stroke:none;fill-rule:evenodd;"
d="M 204.6050,59.2381
202.9151,59.8842
202.9151,60.0864
204.6050,60.7325
204.6050,60.3899
203.4511,59.9855
204.6050,59.5811
Z" /> 
<path style="fill:#000000; fill-opacity:1.0000; stroke:none;fill-rule:evenodd;"
d="M 204.3343,59.5483
204.0274,59.5483
204.0274,60.4373
204.3343,60.4373
Z" /> 
<path style="fill:#000000; fill-opacity:1.0000; stroke:none;fill-rule:evenodd;"
d="M 204.6050,61.2241
202.9151,60.6615
202.9151,60.9891
204.0424,61.3482
202.9151,61.7074
202.9151,62.0350
204.6050,61.4728
Z" /> 
<path style="fill:#000000; fill-opacity:1.0000; stroke:none;fill-rule:evenodd;"
d="M 204.6050,62.7836
202.9151,62.2210
202.9151,62.5486
204.0424,62.9078
202.9151,63.2669
202.9151,63.5945
204.6050,63.0323
Z" /> 
<path style="fill:#000000; fill-opacity:1.0000; stroke:none;fill-rule:evenodd;"
d="M 204.6050,63.5248
202.9151,64.1709
202.9151,64.3731
204.6050,65.0191
204.6050,64.6766
203.4511,64.2722
204.6050,63.8677
Z" /> 
<path style="fill:#000000; fill-opacity:1.0000; stroke:none;fill-rule:evenodd;"
d="M 204.3343,63.8349
204.0274,63.8349
204.0274,64.7239
204.3343,64.7239
Z" /> 
<path style="fill:#000000; fill-opacity:1.0000; stroke:none;fill-rule:evenodd;"
d="M 203.9494,66.0102
203.6430,66.0102
203.6430,66.5504
203.6267,66.6326
203.5852,66.6899
203.5087,66.7333
203.4337,66.7435
203.3468,66.7302
203.2796,66.6904
203.2330,66.6201
203.2219,66.5504
203.2219,66.0102
202.9151,66.0102
202.9151,66.5425
202.9202,66.6292
202.9379,66.7180
202.9683,66.7989
202.9799,66.8216
203.0302,66.8975
203.0929,66.9607
203.1605,67.0072
203.2371,67.0422
203.3217,67.0643
203.4046,67.0730
203.4337,67.0736
203.5181,67.0683
203.6047,67.0502
203.6835,67.0190
203.7056,67.0072
203.7794,66.9552
203.8408,66.8907
203.8859,66.8212
203.9194,66.7426
203.9404,66.6563
203.9488,66.5720
203.9494,66.5425
Z" /> 
<path style="fill:#000000; fill-opacity:1.0000; stroke:none;fill-rule:evenodd;"
d="M 204.6050,65.8649
202.9151,65.8649
202.9151,66.1834
204.6050,66.1834
Z" /> 
<path style="fill:#000000; fill-opacity:1.0000; stroke:none;fill-rule:evenodd;"
d="M 204.0681,67.2910
204.1543,67.3029
204.2444,67.3277
204.3272,67.3647
204.3697,67.3902
204.4382,67.4437
204.4967,67.5070
204.5452,67.5802
204.5753,67.6433
204.6031,67.7310
204.6176,67.8152
204.6224,67.9053
204.6197,67.9734
204.6077,68.0590
204.5825,68.1482
204.5452,68.2300
204.5195,68.2719
204.4655,68.3397
204.4014,68.3975
204.3272,68.4455
204.2634,68.4754
204.1749,68.5031
204.0902,68.5175
203.9996,68.5223
203.5209,68.5223
203.4519,68.5196
203.3652,68.5076
203.2750,68.4826
203.1924,68.4455
203.1502,68.4201
203.0820,68.3666
203.0237,68.3033
202.9753,68.2300
202.9452,68.1670
202.9174,68.0795
202.9029,67.9953
202.8981,67.9053
203.2161,67.9053
203.2200,67.9598
203.2447,68.0417
203.2971,68.1137
203.3469,68.1516
203.4264,68.1829
203.5126,68.1922
204.0075,68.1922
204.0711,68.1873
204.1542,68.1615
204.2226,68.1137
204.2619,68.0656
204.2944,67.9885
204.3040,67.9049
204.3001,67.8506
204.2753,67.7690
204.2226,67.6968
204.1727,67.6589
204.0932,67.6276
204.0075,67.6184
203.5126,67.6184
203.4487,67.6233
203.3653,67.6490
203.2971,67.6968
203.2579,67.7451
203.2257,67.8220
203.2161,67.9053
202.8981,67.9053
202.9008,67.8372
202.9128,67.7515
202.9380,67.6621
202.9753,67.5802
203.0010,67.5383
203.0549,67.4707
203.1187,67.4128
203.1924,67.3647
203.2560,67.3349
203.3445,67.3074
203.4297,67.2930
203.5209,67.2883
203.9996,67.2883
Z" /> 
<path style="fill:#000000; fill-opacity:1.0000; stroke:none;fill-rule:evenodd;"
d="M 203.9494,68.9815
203.6430,68.9815
203.6430,69.5217
203.6267,69.6039
203.5852,69.6612
203.5087,69.7045
203.4337,69.7148
203.3468,69.7015
203.2796,69.6616
203.2330,69.5914
203.2219,69.5217
203.2219,68.9815
202.9151,68.9815
202.9151,69.5138
202.9202,69.6005
202.9379,69.6893
202.9683,69.7701
202.9799,69.7928
203.0302,69.8687
203.0929,69.9319
203.1605,69.9784
203.2371,70.0135
203.3217,70.0355
203.4046,70.0443
203.4337,70.0449
203.5181,70.0396
203.6047,70.0214
203.6835,69.9903
203.7056,69.9784
203.7794,69.9265
203.8408,69.8620
203.8859,69.7924
203.9194,69.7138
203.9404,69.6275
203.9488,69.5433
203.9494,69.5138
Z" /> 
<path style="fill:#000000; fill-opacity:1.0000; stroke:none;fill-rule:evenodd;"
d="M 204.6050,68.8362
202.9151,68.8362
202.9151,69.1547
204.6050,69.1547
Z" /> 
<path style="fill:#000000; fill-opacity:1.0000; stroke:none;fill-rule:evenodd;"
d="M 204.0681,70.2622
204.1543,70.2742
204.2444,70.2990
204.3272,70.3359
204.3697,70.3614
204.4382,70.4150
204.4967,70.4783
204.5452,70.5514
204.5753,70.6145
204.6031,70.7023
204.6176,70.7865
204.6224,70.8765
204.6197,70.9446
204.6077,71.0302
204.5825,71.1195
204.5452,71.2012
204.5195,71.2432
204.4655,71.3109
204.4014,71.3688
204.3272,71.4167
204.2634,71.4467
204.1749,71.4743
204.0902,71.4887
203.9996,71.4935
203.5209,71.4935
203.4519,71.4908
203.3652,71.4788
203.2750,71.4539
203.1924,71.4167
203.1502,71.3913
203.0820,71.3379
203.0237,71.2745
202.9753,71.2012
202.9452,71.1383
202.9174,71.0507
202.9029,70.9666
202.8981,70.8765
203.2161,70.8765
203.2200,70.9311
203.2447,71.0129
203.2971,71.0850
203.3469,71.1229
203.4264,71.1542
203.5126,71.1634
204.0075,71.1634
204.0711,71.1585
204.1542,71.1328
204.2226,71.0850
204.2619,71.0369
204.2944,70.9598
204.3040,70.8761
204.3001,70.8219
204.2753,70.7403
204.2226,70.6681
204.1727,70.6302
204.0932,70.5989
204.0075,70.5896
203.5126,70.5896
203.4487,70.5945
203.3653,70.6203
203.2971,70.6681
203.2579,70.7163
203.2257,70.7933
203.2161,70.8765
202.8981,70.8765
202.9008,70.8084
202.9128,70.7228
202.9380,70.6334
202.9753,70.5514
203.0010,70.5096
203.0549,70.4419
203.1187,70.3840
203.1924,70.3359
203.2560,70.3062
203.3445,70.2786
203.4297,70.2643
203.5209,70.2595
203.9996,70.2595
Z" /> 
<path style="fill:#000000; fill-opacity:1.0000; stroke:none;fill-rule:evenodd;"
d="M 204.6050,72.2189
202.9151,71.6563
202.9151,71.9839
204.0424,72.3431
202.9151,72.7022
202.9151,73.0298
204.6050,72.4676
Z" /> 
<path style="fill:#000000; fill-opacity:1.0000; stroke:none;fill-rule:evenodd;"
d="M 207.4784,58.3728
207.4740,58.2899
207.4588,58.2036
207.4327,58.1236
207.4228,58.1009
207.3784,58.0244
207.3224,57.9594
207.2613,57.9103
207.1833,57.8691
207.1034,57.8444
207.0148,57.8320
207.0055,57.8314
207.0055,58.1602
207.0856,58.1863
207.1263,58.2184
207.1649,58.2949
207.1691,58.3379
207.1549,58.4227
207.1189,58.4779
207.0442,58.5191
206.9764,58.5273
206.9370,58.5273
206.8515,58.5172
206.7884,58.4870
206.7411,58.4159
206.7360,58.3728
206.7360,58.2300
206.4292,58.2300
206.4292,58.3728
206.3990,58.4530
206.3835,58.4662
206.3029,58.4962
206.2548,58.4995
206.2257,58.4995
206.1421,58.4852
206.1053,58.4629
206.0650,58.3876
206.0630,58.3599
206.0861,58.2797
206.1120,58.2491
206.1842,58.2051
206.2502,58.1868
206.2502,57.8592
206.1654,57.8713
206.0758,57.8962
205.9964,57.9328
205.9272,57.9811
205.8840,58.0228
205.8272,58.0983
205.7866,58.1816
205.7622,58.2727
205.7542,58.3588
205.7541,58.3716
205.7595,58.4650
205.7760,58.5486
205.8082,58.6322
205.8548,58.7030
205.8687,58.7187
205.9405,58.7779
206.0170,58.8143
206.1056,58.8353
206.1929,58.8412
206.2444,58.8412
206.3280,58.8328
206.4091,58.8049
206.4487,58.7818
206.5123,58.7256
206.5613,58.6528
206.5791,58.6136
206.6101,58.6972
206.6615,58.7653
206.7070,58.8021
206.7820,58.8402
206.8699,58.8625
206.9611,58.8690
207.0126,58.8690
207.1048,58.8628
207.1875,58.8440
207.2703,58.8074
207.3407,58.7544
207.3564,58.7386
207.4098,58.6670
207.4479,58.5822
207.4688,58.4971
207.4780,58.4019
Z" /> 
<path style="fill:#000000; fill-opacity:1.0000; stroke:none;fill-rule:evenodd;"
d="M 207.4610,59.1933
205.7711,59.1933
205.7711,59.5117
207.4610,59.5117
Z" /> 
<path style="fill:#000000; fill-opacity:1.0000; stroke:none;fill-rule:evenodd;"
d="M 207.4610,59.3083
207.1542,59.3083
207.1542,60.3252
207.4610,60.3252
Z" /> 
<path style="fill:#000000; fill-opacity:1.0000; stroke:none;fill-rule:evenodd;"
d="M 206.7755,59.3083
206.4686,59.3083
206.4686,60.1973
206.7755,60.1973
Z" /> 
<path style="fill:#000000; fill-opacity:1.0000; stroke:none;fill-rule:evenodd;"
d="M 206.0779,59.3083
205.7711,59.3083
205.7711,60.3252
206.0779,60.3252
Z" /> 
<path style="fill:#000000; fill-opacity:1.0000; stroke:none;fill-rule:evenodd;"
d="M 207.4610,60.4522
205.7711,61.0983
205.7711,61.3005
207.4610,61.9466
207.4610,61.6040
206.3071,61.1996
207.4610,60.7952
Z" /> 
<path style="fill:#000000; fill-opacity:1.0000; stroke:none;fill-rule:evenodd;"
d="M 207.1903,60.7624
206.8834,60.7624
206.8834,61.6513
207.1903,61.6513
Z" /> 
<path style="fill:#000000; fill-opacity:1.0000; stroke:none;fill-rule:evenodd;"
d="M 207.4610,62.7923
205.7711,62.7923
205.7711,63.1108
207.4610,63.1108
Z" /> 
<path style="fill:#000000; fill-opacity:1.0000; stroke:none;fill-rule:evenodd;"
d="M 207.4610,62.9339
207.1542,62.9339
207.1542,63.9242
207.4610,63.9242
Z" /> 
<path style="fill:#000000; fill-opacity:1.0000; stroke:none;fill-rule:evenodd;"
d="M 205.7711,64.5753
207.4610,64.5753
207.4610,64.2568
206.1456,64.2568
206.2233,64.0513
205.8853,64.0513
205.7711,64.3033
Z" /> 
</g>
<g style="fill:#000000; fill-opacity:1.0000; stroke:none;">
<circle cx="152.5000" cy="58.2500" r="1.8000" /> 
</g>
<g style="fill:#000000; fill-opacity:1.0000; stroke:none;">
<circle cx="152.5000" cy="58.2500" r="2.8000" /> 
<path style="fill:#000000; fill-opacity:1.0000; stroke:none;fill-rule:evenodd;"
d="M 196.8250,69.1500
196.8250,67.3500
198.6250,67.3500
198.6250,69.1500
Z" /> 
</g>
<g style="fill:#000000; fill-opacity:1.0000; stroke:none;">
<circle cx="200.2650" cy="68.2500" r="0.9000" /> 
<path style="fill:#000000; fill-opacity:1.0000; stroke:none;fill-rule:evenodd;"
d="M 183.1500,61.0000
183.1500,59.4000
184.7500,59.4000
184.7500,61.0000
Z" /> 
</g>
<g style="fill:#000000; fill-opacity:1.0000; stroke:none;">
<circle cx="183.9500" cy="62.7400" r="0.8000" /> 
<circle cx="183.9500" cy="65.2800" r="0.8000" /> 
<circle cx="183.9500" cy="67.8200" r="0.8000" /> 
<circle cx="191.5700" cy="67.8200" r="0.8000" /> 
<circle cx="191.5700" cy="65.2800" r="0.8000" /> 
<circle cx="191.5700" cy="62.7400" r="0.8000" /> 
<circle cx="191.5700" cy="60.2000" r="0.8000" /> 
<path style="fill:#000000; fill-opacity:1.0000; stroke:none;fill-rule:evenodd;"
d="M 168.4300,68.6500
168.4300,70.8500
166.2300,70.8500
166.2300,68.6500
Z" /> 
<circle cx="157.1700" cy="69.7500" r="1.1000" /> 
<path style="fill:#000000; fill-opacity:1.0000; stroke:none;fill-rule:evenodd;"
d="M 153.1500,64.3250
153.1500,62.6250
154.8500,62.6250
154.8500,64.3250
Z" /> 
<circle cx="154.0000" cy="66.0150" r="0.8500" /> 
<path style="fill:#000000; fill-opacity:1.0000; stroke:none;fill-rule:evenodd;"
d="M 192.1000,83.7500
192.1000,85.3500
190.5000,85.3500
190.5000,83.7500
Z" /> 
<circle cx="191.3000" cy="82.0100" r="0.8000" /> 
<circle cx="191.3000" cy="79.4700" r="0.8000" /> 
<circle cx="191.3000" cy="76.9300" r="0.8000" /> 
<circle cx="183.6800" cy="76.9300" r="0.8000" /> 
<circle cx="183.6800" cy="79.4700" r="0.8000" /> 
<circle cx="183.6800" cy="82.0100" r="0.8000" /> 
<circle cx="183.6800" cy="84.5500" r="0.8000" /> 
<circle cx="179.2200" cy="76.5800" r="0.8000" /> 
</g>
<g style="fill:#000000; fill-opacity:1.0000; stroke:none;">
<circle cx="179.2200" cy="81.5800" r="0.8000" /> 
<path style="fill:#000000; fill-opacity:1.0000; stroke:none;fill-rule:evenodd;"
d="M 154.8500,74.6500
154.8500,76.3500
153.1500,76.3500
153.1500,74.6500
Z" /> 
<path style="fill:#000000; fill-opacity:1.0000; stroke:none;fill-rule:evenodd;"
d="M 168.4300,58.9000
168.4300,61.1000
166.2300,61.1000
166.2300,58.9000
Z" /> 
</g>
<g style="fill:#000000; fill-opacity:1.0000; stroke:none;">
<circle cx="157.1700" cy="60.0000" r="1.1000" /> 
<circle cx="194.3300" cy="72.0000" r="0.8000" /> 
</g>
<g style="fill:#000000; fill-opacity:1.0000; stroke:none;">
<circle cx="184.1700" cy="72.0000" r="0.8000" /> 
<path style="fill:#000000; fill-opacity:1.0000; stroke:none;fill-rule:evenodd;"
d="M 156.0700,64.3500
156.0700,62.1500
158.2700,62.1500
158.2700,64.3500
Z" /> 
<circle cx="167.3300" cy="63.2500" r="1.1000" /> 
<path style="fill:#000000; fill-opacity:1.0000; stroke:none;fill-rule:evenodd;"
d="M 175.0200,77.1300
173.4200,77.1300
173.4200,75.5300
175.0200,75.5300
Z" /> 
<circle cx="174.2200" cy="73.8300" r="0.8000" /> 
</g>
<g style="fill:#000000; fill-opacity:1.0000; stroke:none;">
<circle cx="166.2200" cy="83.4100" r="0.8000" /> 
</g>
<g style="fill:#000000; fill-opacity:1.0000; stroke:none;">
<circle cx="166.2200" cy="73.2500" r="0.8000" /> 
<path style="fill:#000000; fill-opacity:1.0000; stroke:none;fill-rule:evenodd;"
d="M 178.3600,68.9500
178.3600,70.5500
176.7600,70.5500
176.7600,68.9500
Z" /> 
<circle cx="169.9400" cy="69.7500" r="0.8000" /> 
<circle cx="194.2500" cy="58.9200" r="0.8000" /> 
</g>
<g style="fill:#000000; fill-opacity:1.0000; stroke:none;">
<circle cx="194.2500" cy="69.0800" r="0.8000" /> 
<path style="fill:#000000; fill-opacity:1.0000; stroke:none;fill-rule:evenodd;"
d="M 201.1750,81.8500
201.1750,83.6500
199.3750,83.6500
199.3750,81.8500
Z" /> 
<circle cx="197.7350" cy="82.7500" r="0.9000" /> 
<path style="fill:#000000; fill-opacity:1.0000; stroke:none;fill-rule:evenodd;"
d="M 156.0700,67.6000
156.0700,65.4000
158.2700,65.4000
158.2700,67.6000
Z" /> 
</g>
<g style="fill:#000000; fill-opacity:1.0000; stroke:none;">
<circle cx="167.3300" cy="66.5000" r="1.1000" /> 
<circle cx="157.2500" cy="73.2500" r="0.8000" /> 
</g>
<g style="fill:#000000; fill-opacity:1.0000; stroke:none;">
<circle cx="157.2500" cy="83.4100" r="0.8000" /> 
<circle cx="163.2500" cy="83.4100" r="0.8000" /> 
</g>
<g style="fill:#000000; fill-opacity:1.0000; stroke:none;">
<circle cx="163.2500" cy="73.2500" r="0.8000" /> 
<path style="fill:#000000; fill-opacity:1.0000; stroke:none;fill-rule:evenodd;"
d="M 196.8250,76.4000
196.8250,74.6000
198.6250,74.6000
198.6250,76.4000
Z" /> 
<circle cx="200.2650" cy="75.5000" r="0.9000" /> 
<path style="fill:#000000; fill-opacity:1.0000; stroke:none;fill-rule:evenodd;"
d="M 173.4200,80.0300
175.0200,80.0300
175.0200,81.6300
173.4200,81.6300
Z" /> 
</g>
<g style="fill:#000000; fill-opacity:1.0000; stroke:none;">
<circle cx="174.2200" cy="83.3300" r="0.8000" /> 
</g>
<g style="fill:#000000; fill-opacity:1.0000; stroke:none;">
<circle cx="205.5000" cy="83.5000" r="1.8000" /> 
</g>
<g style="fill:#000000; fill-opacity:1.0000; stroke:none;">
<circle cx="205.5000" cy="83.5000" r="2.8000" /> 
</g>
<g style="fill:#000000; fill-opacity:1.0000; stroke:none;">
<circle cx="194.2500" cy="85.3300" r="0.8000" /> 
</g>
<g style="fill:#000000; fill-opacity:1.0000; stroke:none;">
<circle cx="194.2500" cy="75.1700" r="0.8000" /> 
<path style="fill:#000000; fill-opacity:1.0000; stroke:none;fill-rule:evenodd;"
d="M 171.4500,62.2000
173.0500,62.2000
173.0500,63.8000
171.4500,63.8000
Z" /> 
<circle cx="172.2500" cy="65.5000" r="0.8000" /> 
</g>
<g style="fill:#000000; fill-opacity:1.0000; stroke:none;">
<circle cx="160.2500" cy="83.4100" r="0.8000" /> 
</g>
<g style="fill:#000000; fill-opacity:1.0000; stroke:none;">
<circle cx="160.2500" cy="73.2500" r="0.8000" /> 
<circle cx="169.2500" cy="73.2500" r="0.8000" /> 
</g>
<g style="fill:#000000; fill-opacity:1.0000; stroke:none;">
<circle cx="169.2500" cy="83.4100" r="0.8000" /> 
<path style="fill:#000000; fill-opacity:1.0000; stroke:none;fill-rule:evenodd;"
d="M 154.8500,79.3000
154.8500,81.0000
153.1500,81.0000
153.1500,79.3000
Z" /> 
<path style="fill:#000000; fill-opacity:1.0000; stroke:none;fill-rule:evenodd;"
d="M 201.1750,60.1000
201.1750,61.9000
199.3750,61.9000
199.3750,60.1000
Z" /> 
<circle cx="197.7350" cy="61.0000" r="0.9000" /> 
<path style="fill:#000000; fill-opacity:1.0000; stroke:none;fill-rule:evenodd;"
d="M 180.0500,66.3000
178.4500,66.3000
178.4500,64.7000
180.0500,64.7000
Z" /> 
</g>
<g style="fill:#000000; fill-opacity:1.0000; stroke:none;">
<circle cx="179.2500" cy="63.0000" r="0.8000" /> 
</g>
<g style="fill:#000000; fill-opacity:1.0000; stroke:none;">
<circle cx="181.5000" cy="59.2500" r="0.8000" /> 
</g>
<g style="fill:#000000; fill-opacity:1.0000; stroke:none;">
<circle cx="176.5000" cy="59.2500" r="0.8000" /> 
</g>
<g style="fill:none; 
stroke:#000000; stroke-width:0.7000; stroke-opacity:1; 
stroke-linecap:round; stroke-linejoin:round;">
<path d="M180.7500 76.9592
L179.4592 78.2500
" />
<path d="M177.5600 70.8100
L180.7500 74.0000
" />
<path d="M179.4592 78.2500
L176.1400 78.2500
" />
<path d="M163.2500 73.2500
L160.2500 73.2500
" />
<path d="M174.2200 76.3300
L169.3000 76.3300
" />
<path d="M180.7500 74.0000
L180.7500 76.9592
" />
<path d="M176.1400 78.2500
L174.2200 76.3300
" />
<path d="M177.5600 69.7500
L177.5600 70.8100
" />
<path d="M163.2500 73.2500
L166.2200 73.2500
" />
<path d="M169.3000 76.3300
L166.2200 73.2500
" />
<path d="M174.2200 73.8300
L176.4700 73.8300
" />
<path d="M176.4700 73.8300
L179.2200 76.5800
" />
</g>
<g style="fill:none; 
stroke:#000000; stroke-width:0.5000; stroke-opacity:1; 
stroke-linecap:round; stroke-linejoin:round;">
<path d="M157.7500 79.2500
L154.0000 75.5000
" />
<path d="M172.2500 65.5000
L171.7500 65.5000
" />
<path d="M191.3000 84.5500
L190.0500 85.8000
" />
<path d="M178.0000 57.7500
L182.5000 57.7500
" />
<path d="M179.2200 81.5800
L176.8900 79.2500
" />
<path d="M174.2200 83.3300
L177.4700 83.3300
" />
<path d="M176.5000 59.2500
L178.0000 57.7500
" />
<path d="M176.8900 79.2500
L157.7500 79.2500
" />
<path d="M174.7500 63.0000
L179.2500 63.0000
" />
<path d="M167.3000 71.3000
L159.2000 71.3000
" />
<path d="M182.3086 85.8000
L179.2200 82.7114
" />
<path d="M172.2500 65.5000
L174.7500 63.0000
" />
<path d="M157.2500 73.2500
L156.2500 73.2500
" />
<path d="M177.4700 83.3300
L179.2200 81.5800
" />
<path d="M170.7500 66.5000
L167.3300 66.5000
" />
<path d="M176.5000 60.2500
L176.5000 59.2500
" />
<path d="M169.2500 73.2500
L172.2500 70.2500
" />
<path d="M169.2500 73.2500
L167.3000 71.3000
" />
<path d="M159.2000 71.3000
L157.2500 73.2500
" />
<path d="M172.2500 70.2500
L172.2500 65.5000
" />
<path d="M182.5000 57.7500
L183.9500 59.2000
" />
<path d="M183.9500 59.2000
L183.9500 60.2000
" />
<path d="M190.0500 85.8000
L182.3086 85.8000
" />
<path d="M179.2500 63.0000
L176.5000 60.2500
" />
<path d="M171.7500 65.5000
L170.7500 66.5000
" />
<path d="M179.2200 82.7114
L179.2200 81.5800
" />
<path d="M167.3300 66.5000
L167.3300 63.2500
" />
<path d="M156.2500 73.2500
L154.0000 75.5000
" />
</g>
<g style="fill:none; 
stroke:#000000; stroke-width:0.7000; stroke-opacity:1; 
stroke-linecap:round; stroke-linejoin:round;">
<path d="M167.3300 60.0000
L165.0000 62.3300
" />
<path d="M191.5700 60.2000
L196.0000 64.6300
" />
<path d="M196.0000 72.5000
L195.0000 73.5000
" />
<path d="M176.5000 56.5000
L187.8700 56.5000
" />
<path d="M187.8700 56.5000
L191.5700 60.2000
" />
<path d="M165.0000 62.3300
L165.0000 67.4200
" />
<path d="M185.5000 82.7300
L183.6800 84.5500
" />
<path d="M185.5000 78.5000
L185.5000 82.7300
" />
<path d="M172.2500 63.0000
L174.5000 60.7500
" />
<path d="M183.6800 84.5500
L183.6800 84.8000
" />
<path d="M195.0000 73.5000
L190.5000 73.5000
" />
<path d="M174.5000 58.5000
L176.5000 56.5000
" />
<path d="M169.2500 60.0000
L172.2500 63.0000
" />
<path d="M174.5000 60.7500
L174.5000 58.5000
" />
<path d="M165.0000 67.4200
L167.3300 69.7500
" />
<path d="M167.3300 69.7500
L169.9400 69.7500
" />
<path d="M191.5700 60.2000
L191.5700 59.9500
" />
<path d="M196.0000 64.6300
L196.0000 72.5000
" />
<path d="M168.3300 60.0000
L169.2500 60.0000
" />
<path d="M190.5000 73.5000
L185.5000 78.5000
" />
<path d="M163.2500 83.4100
L165.8300 80.8300
" />
<path d="M165.8300 80.8300
L174.2200 80.8300
" />
<path d="M156.9450 63.4750
L157.1700 63.2500
" />
<path d="M154.0000 63.4750
L156.9450 63.4750
" />
<path d="M157.1700 60.0000
L157.1700 63.2500
" />
<path d="M156.6850 66.0150
L157.1700 66.5000
" />
<path d="M154.0000 66.0150
L156.6850 66.0150
" />
<path d="M157.1700 66.5000
L157.1700 69.7500
" />
<path d="M197.7250 68.2500
L197.7250 75.5000
" />
<path d="M197.7350 82.7500
L197.7350 75.5100
" />
<path d="M197.7350 61.0150
L197.7250 61.0250
" />
<path d="M197.7250 61.0250
L197.7250 68.2500
" />
<path d="M197.7350 61.0000
L197.7350 61.0150
" />
<path d="M197.7350 75.5100
L197.7250 75.5000
" />
<path d="M191.3000 79.2200
L194.2500 82.1700
" />
<path d="M200.2650 82.7400
L200.2750 82.7500
" />
<path d="M200.2650 75.5000
L200.2650 82.7400
" />
<path d="M194.2500 82.1700
L194.2500 85.3300
" />
<path d="M194.2500 85.3300
L197.6950 85.3300
" />
<path d="M197.6950 85.3300
L200.2750 82.7500
" />
<path d="M200.2650 61.0100
L200.2750 61.0000
" />
<path d="M200.2650 68.2500
L200.2650 61.0100
" />
<path d="M198.1950 58.9200
L200.2750 61.0000
" />
<path d="M194.2500 58.9200
L198.1950 58.9200
" />
<path d="M154.0000 80.1600
L157.2500 83.4100
" />
<path d="M154.0000 80.1500
L154.0000 80.1600
" />
<path d="M157.2500 83.4100
L160.2500 83.4100
" />
<path d="M166.2200 83.4100
L169.2500 83.4100
" />
<path d="M194.3300 72.0000
L194.2500 71.9200
" />
<path d="M183.9500 65.2800
L187.8400 69.1700
" />
<path d="M194.1600 69.1700
L194.2500 69.0800
" />
<path d="M194.2500 71.9200
L194.2500 69.0800
" />
<path d="M187.8400 69.1700
L194.1600 69.1700
" />
<path d="M189.0300 62.7400
L191.5700 65.2800
" />
<path d="M184.0900 71.7500
L182.6000 70.2600
" />
<path d="M181.5000 60.2900
L183.9500 62.7400
" />
<path d="M182.6000 70.2600
L182.6000 64.0900
" />
<path d="M183.9500 62.7400
L189.0300 62.7400
" />
<path d="M182.6000 64.0900
L183.9500 62.7400
" />
<path d="M181.5000 59.5000
L181.5000 60.2900
" />
<path d="M191.3000 82.2600
L191.3000 82.0100
" />
<path d="M189.7500 80.4600
L189.7500 76.2500
" />
<path d="M189.7500 76.2500
L190.8300 75.1700
" />
<path d="M190.8300 75.1700
L194.2500 75.1700
" />
<path d="M191.3000 82.0100
L189.7500 80.4600
" />
<path d="M179.2500 70.1672
L182.2500 73.1672
" />
<path d="M179.2500 65.6824
L179.2500 70.1672
" />
<path d="M182.2500 78.0400
L183.6800 79.4700
" />
<path d="M182.2500 73.1672
L182.2500 78.0400
" />
</g>
<g style="fill:#FFFFFF; fill-opacity:1.0000; stroke:none;">
<circle cx="152.5000" cy="58.2500" r="1.6000" /> 
</g>
<g style="fill:#FFFFFF; fill-opacity:1.0000; stroke:none;">
<circle cx="197.7250" cy="68.2500" r="0.4500" /> 
</g>
<g style="fill:#FFFFFF; fill-opacity:1.0000; stroke:none;">
<circle cx="200.2650" cy="68.2500" r="0.4500" /> 
</g>
<g style="fill:#FFFFFF; fill-opacity:1.0000; stroke:none;">
<circle cx="183.9500" cy="60.2000" r="0.4000" /> 
</g>
<g style="fill:#FFFFFF; fill-opacity:1.0000; stroke:none;">
<circle cx="183.9500" cy="62.7400" r="0.4000" /> 
</g>
<g style="fill:#FFFFFF; fill-opacity:1.0000; stroke:none;">
<circle cx="183.9500" cy="65.2800" r="0.4000" /> 
</g>
<g style="fill:#FFFFFF; fill-opacity:1.0000; stroke:none;">
<circle cx="183.9500" cy="67.8200" r="0.4000" /> 
</g>
<g style="fill:#FFFFFF; fill-opacity:1.0000; stroke:none;">
<circle cx="191.5700" cy="67.8200" r="0.4000" /> 
</g>
<g style="fill:#FFFFFF; fill-opacity:1.0000; stroke:none;">
<circle cx="191.5700" cy="65.2800" r="0.4000" /> 
</g>
<g style="fill:#FFFFFF; fill-opacity:1.0000; stroke:none;">
<circle cx="191.5700" cy="62.7400" r="0.4000" /> 
</g>
<g style="fill:#FFFFFF; fill-opacity:1.0000; stroke:none;">
<circle cx="191.5700" cy="60.2000" r="0.4000" /> 
</g>
<g style="fill:#FFFFFF; fill-opacity:1.0000; stroke:none;">
<circle cx="167.3300" cy="69.7500" r="0.5500" /> 
</g>
<g style="fill:#FFFFFF; fill-opacity:1.0000; stroke:none;">
<circle cx="157.1700" cy="69.7500" r="0.5500" /> 
</g>
<g style="fill:#FFFFFF; fill-opacity:1.0000; stroke:none;">
<circle cx="154.0000" cy="63.4750" r="0.5000" /> 
</g>
<g style="fill:#FFFFFF; fill-opacity:1.0000; stroke:none;">
<circle cx="154.0000" cy="66.0150" r="0.5000" /> 
</g>
<g style="fill:#FFFFFF; fill-opacity:1.0000; stroke:none;">
<circle cx="191.3000" cy="84.5500" r="0.4000" /> 
</g>
<g style="fill:#FFFFFF; fill-opacity:1.0000; stroke:none;">
<circle cx="191.3000" cy="82.0100" r="0.4000" /> 
</g>
<g style="fill:#FFFFFF; fill-opacity:1.0000; stroke:none;">
<circle cx="191.3000" cy="79.4700" r="0.4000" /> 
</g>
<g style="fill:#FFFFFF; fill-opacity:1.0000; stroke:none;">
<circle cx="191.3000" cy="76.9300" r="0.4000" /> 
</g>
<g style="fill:#FFFFFF; fill-opacity:1.0000; stroke:none;">
<circle cx="183.6800" cy="76.9300" r="0.4000" /> 
</g>
<g style="fill:#FFFFFF; fill-opacity:1.0000; stroke:none;">
<circle cx="183.6800" cy="79.4700" r="0.4000" /> 
</g>
<g style="fill:#FFFFFF; fill-opacity:1.0000; stroke:none;">
<circle cx="183.6800" cy="82.0100" r="0.4000" /> 
</g>
<g style="fill:#FFFFFF; fill-opacity:1.0000; stroke:none;">
<circle cx="183.6800" cy="84.5500" r="0.4000" /> 
</g>
<g style="fill:#FFFFFF; fill-opacity:1.0000; stroke:none;">
<circle cx="179.2200" cy="76.5800" r="0.4000" /> 
</g>
<g style="fill:#FFFFFF; fill-opacity:1.0000; stroke:none;">
<circle cx="179.2200" cy="81.5800" r="0.4000" /> 
</g>
<g style="fill:#FFFFFF; fill-opacity:1.0000; stroke:none;">
<circle cx="154.0000" cy="75.5000" r="0.5000" /> 
</g>
<g style="fill:#FFFFFF; fill-opacity:1.0000; stroke:none;">
<circle cx="167.3300" cy="60.0000" r="0.5500" /> 
</g>
<g style="fill:#FFFFFF; fill-opacity:1.0000; stroke:none;">
<circle cx="157.1700" cy="60.0000" r="0.5500" /> 
</g>
<g style="fill:#FFFFFF; fill-opacity:1.0000; stroke:none;">
<circle cx="194.3300" cy="72.0000" r="0.4000" /> 
</g>
<g style="fill:#FFFFFF; fill-opacity:1.0000; stroke:none;">
<circle cx="184.1700" cy="72.0000" r="0.4000" /> 
</g>
<g style="fill:#FFFFFF; fill-opacity:1.0000; stroke:none;">
<circle cx="157.1700" cy="63.2500" r="0.5500" /> 
</g>
<g style="fill:#FFFFFF; fill-opacity:1.0000; stroke:none;">
<circle cx="167.3300" cy="63.2500" r="0.5500" /> 
</g>
<g style="fill:#FFFFFF; fill-opacity:1.0000; stroke:none;">
<circle cx="174.2200" cy="76.3300" r="0.4000" /> 
</g>
<g style="fill:#FFFFFF; fill-opacity:1.0000; stroke:none;">
<circle cx="174.2200" cy="73.8300" r="0.4000" /> 
</g>
<g style="fill:#FFFFFF; fill-opacity:1.0000; stroke:none;">
<circle cx="166.2200" cy="83.4100" r="0.4000" /> 
</g>
<g style="fill:#FFFFFF; fill-opacity:1.0000; stroke:none;">
<circle cx="166.2200" cy="73.2500" r="0.4000" /> 
</g>
<g style="fill:#FFFFFF; fill-opacity:1.0000; stroke:none;">
<circle cx="177.5600" cy="69.7500" r="0.4000" /> 
</g>
<g style="fill:#FFFFFF; fill-opacity:1.0000; stroke:none;">
<circle cx="169.9400" cy="69.7500" r="0.4000" /> 
</g>
<g style="fill:#FFFFFF; fill-opacity:1.0000; stroke:none;">
<circle cx="194.2500" cy="58.9200" r="0.4000" /> 
</g>
<g style="fill:#FFFFFF; fill-opacity:1.0000; stroke:none;">
<circle cx="194.2500" cy="69.0800" r="0.4000" /> 
</g>
<g style="fill:#FFFFFF; fill-opacity:1.0000; stroke:none;">
<circle cx="200.2750" cy="82.7500" r="0.4500" /> 
</g>
<g style="fill:#FFFFFF; fill-opacity:1.0000; stroke:none;">
<circle cx="197.7350" cy="82.7500" r="0.4500" /> 
</g>
<g style="fill:#FFFFFF; fill-opacity:1.0000; stroke:none;">
<circle cx="157.1700" cy="66.5000" r="0.5500" /> 
</g>
<g style="fill:#FFFFFF; fill-opacity:1.0000; stroke:none;">
<circle cx="167.3300" cy="66.5000" r="0.5500" /> 
</g>
<g style="fill:#FFFFFF; fill-opacity:1.0000; stroke:none;">
<circle cx="157.2500" cy="73.2500" r="0.4000" /> 
</g>
<g style="fill:#FFFFFF; fill-opacity:1.0000; stroke:none;">
<circle cx="157.2500" cy="83.4100" r="0.4000" /> 
</g>
<g style="fill:#FFFFFF; fill-opacity:1.0000; stroke:none;">
<circle cx="163.2500" cy="83.4100" r="0.4000" /> 
</g>
<g style="fill:#FFFFFF; fill-opacity:1.0000; stroke:none;">
<circle cx="163.2500" cy="73.2500" r="0.4000" /> 
</g>
<g style="fill:#FFFFFF; fill-opacity:1.0000; stroke:none;">
<circle cx="197.7250" cy="75.5000" r="0.4500" /> 
</g>
<g style="fill:#FFFFFF; fill-opacity:1.0000; stroke:none;">
<circle cx="200.2650" cy="75.5000" r="0.4500" /> 
</g>
<g style="fill:#FFFFFF; fill-opacity:1.0000; stroke:none;">
<circle cx="174.2200" cy="80.8300" r="0.4000" /> 
</g>
<g style="fill:#FFFFFF; fill-opacity:1.0000; stroke:none;">
<circle cx="174.2200" cy="83.3300" r="0.4000" /> 
</g>
<g style="fill:#FFFFFF; fill-opacity:1.0000; stroke:none;">
<circle cx="205.5000" cy="83.5000" r="1.6000" /> 
</g>
<g style="fill:#FFFFFF; fill-opacity:1.0000; stroke:none;">
<circle cx="194.2500" cy="85.3300" r="0.4000" /> 
</g>
<g style="fill:#FFFFFF; fill-opacity:1.0000; stroke:none;">
<circle cx="194.2500" cy="75.1700" r="0.4000" /> 
</g>
<g style="fill:#FFFFFF; fill-opacity:1.0000; stroke:none;">
<circle cx="172.2500" cy="63.0000" r="0.4000" /> 
</g>
<g style="fill:#FFFFFF; fill-opacity:1.0000; stroke:none;">
<circle cx="172.2500" cy="65.5000" r="0.4000" /> 
</g>
<g style="fill:#FFFFFF; fill-opacity:1.0000; stroke:none;">
<circle cx="160.2500" cy="83.4100" r="0.4000" /> 
</g>
<g style="fill:#FFFFFF; fill-opacity:1.0000; stroke:none;">
<circle cx="160.2500" cy="73.2500" r="0.4000" /> 
</g>
<g style="fill:#FFFFFF; fill-opacity:1.0000; stroke:none;">
<circle cx="169.2500" cy="73.2500" r="0.4000" /> 
</g>
<g style="fill:#FFFFFF; fill-opacity:1.0000; stroke:none;">
<circle cx="169.2500" cy="83.4100" r="0.4000" /> 
</g>
<g style="fill:#FFFFFF; fill-opacity:1.0000; stroke:none;">
<circle cx="154.0000" cy="80.1500" r="0.5000" /> 
</g>
<g style="fill:#FFFFFF; fill-opacity:1.0000; stroke:none;">
<circle cx="200.2750" cy="61.0000" r="0.4500" /> 
</g>
<g style="fill:#FFFFFF; fill-opacity:1.0000; stroke:none;">
<circle cx="197.7350" cy="61.0000" r="0.4500" /> 
</g>
<g style="fill:#FFFFFF; fill-opacity:1.0000; stroke:none;">
<circle cx="179.2500" cy="65.5000" r="0.4000" /> 
</g>
<g style="fill:#FFFFFF; fill-opacity:1.0000; stroke:none;">
<circle cx="179.2500" cy="63.0000" r="0.4000" /> 
</g>
<g style="fill:#FFFFFF; fill-opacity:1.0000; stroke:none;">
<circle cx="181.5000" cy="59.2500" r="0.4000" /> 
</g>
<g style="fill:#FFFFFF; fill-opacity:1.0000; stroke:none;">
<circle cx="176.5000" cy="59.2500" r="0.4000" /> 
</g>
<g style="fill:none; 
stroke:#000000; stroke-width:0.0500; stroke-opacity:1; 
stroke-linecap:round; stroke-linejoin:round;">
<path d="M150.0000 86.7500
L208.0000 86.7500
" />
<path d="M208.0000 86.7500 A0.7500 0.7500 0.0 0 0 208.7500 86.0000" />
<path d="M150.0000 55.0000 A0.7500 0.7500 0.0 0 0 149.2500 55.7500" />
<path d="M149.2500 86.0000 A0.7500 0.7500 0.0 0 0 150.0000 86.7500" />
<path d="M208.7500 86.0000
L208.7500 55.7500
" />
<path d="M208.0000 55.0000
L150.0000 55.0000
" />
<path d="M149.2500 55.7500
L149.2500 86.0000
" />
<path d="M208.7500 55.7500 A0.7500 0.7500 0.0 0 0 208.0000 55.0000" />
</g>
<g style="fill:#000000; fill-opacity:1.0000; stroke:none;">
<circle cx="152.5000" cy="58.2500" r="1.6000" /> 
</g>
<g style="fill:#000000; fill-opacity:1.0000; stroke:none;">
<circle cx="197.7250" cy="68.2500" r="0.4500" /> 
</g>
<g style="fill:#000000; fill-opacity:1.0000; stroke:none;">
<circle cx="200.2650" cy="68.2500" r="0.4500" /> 
</g>
<g style="fill:#000000; fill-opacity:1.0000; stroke:none;">
<circle cx="183.9500" cy="60.2000" r="0.4000" /> 
</g>
<g style="fill:#000000; fill-opacity:1.0000; stroke:none;">
<circle cx="183.9500" cy="62.7400" r="0.4000" /> 
</g>
<g style="fill:#000000; fill-opacity:1.0000; stroke:none;">
<circle cx="183.9500" cy="65.2800" r="0.4000" /> 
</g>
<g style="fill:#000000; fill-opacity:1.0000; stroke:none;">
<circle cx="183.9500" cy="67.8200" r="0.4000" /> 
</g>
<g style="fill:#000000; fill-opacity:1.0000; stroke:none;">
<circle cx="191.5700" cy="67.8200" r="0.4000" /> 
</g>
<g style="fill:#000000; fill-opacity:1.0000; stroke:none;">
<circle cx="191.5700" cy="65.2800" r="0.4000" /> 
</g>
<g style="fill:#000000; fill-opacity:1.0000; stroke:none;">
<circle cx="191.5700" cy="62.7400" r="0.4000" /> 
</g>
<g style="fill:#000000; fill-opacity:1.0000; stroke:none;">
<circle cx="191.5700" cy="60.2000" r="0.4000" /> 
</g>
<g style="fill:#000000; fill-opacity:1.0000; stroke:none;">
<circle cx="167.3300" cy="69.7500" r="0.5500" /> 
</g>
<g style="fill:#000000; fill-opacity:1.0000; stroke:none;">
<circle cx="157.1700" cy="69.7500" r="0.5500" /> 
</g>
<g style="fill:#000000; fill-opacity:1.0000; stroke:none;">
<circle cx="154.0000" cy="63.4750" r="0.5000" /> 
</g>
<g style="fill:#000000; fill-opacity:1.0000; stroke:none;">
<circle cx="154.0000" cy="66.0150" r="0.5000" /> 
</g>
<g style="fill:#000000; fill-opacity:1.0000; stroke:none;">
<circle cx="191.3000" cy="84.5500" r="0.4000" /> 
</g>
<g style="fill:#000000; fill-opacity:1.0000; stroke:none;">
<circle cx="191.3000" cy="82.0100" r="0.4000" /> 
</g>
<g style="fill:#000000; fill-opacity:1.0000; stroke:none;">
<circle cx="191.3000" cy="79.4700" r="0.4000" /> 
</g>
<g style="fill:#000000; fill-opacity:1.0000; stroke:none;">
<circle cx="191.3000" cy="76.9300" r="0.4000" /> 
</g>
<g style="fill:#000000; fill-opacity:1.0000; stroke:none;">
<circle cx="183.6800" cy="76.9300" r="0.4000" /> 
</g>
<g style="fill:#000000; fill-opacity:1.0000; stroke:none;">
<circle cx="183.6800" cy="79.4700" r="0.4000" /> 
</g>
<g style="fill:#000000; fill-opacity:1.0000; stroke:none;">
<circle cx="183.6800" cy="82.0100" r="0.4000" /> 
</g>
<g style="fill:#000000; fill-opacity:1.0000; stroke:none;">
<circle cx="183.6800" cy="84.5500" r="0.4000" /> 
</g>
<g style="fill:#000000; fill-opacity:1.0000; stroke:none;">
<circle cx="179.2200" cy="76.5800" r="0.4000" /> 
</g>
<g style="fill:#000000; fill-opacity:1.0000; stroke:none;">
<circle cx="179.2200" cy="81.5800" r="0.4000" /> 
</g>
<g style="fill:#000000; fill-opacity:1.0000; stroke:none;">
<circle cx="154.0000" cy="75.5000" r="0.5000" /> 
</g>
<g style="fill:#000000; fill-opacity:1.0000; stroke:none;">
<circle cx="167.3300" cy="60.0000" r="0.5500" /> 
</g>
<g style="fill:#000000; fill-opacity:1.0000; stroke:none;">
<circle cx="157.1700" cy="60.0000" r="0.5500" /> 
</g>
<g style="fill:#000000; fill-opacity:1.0000; stroke:none;">
<circle cx="194.3300" cy="72.0000" r="0.4000" /> 
</g>
<g style="fill:#000000; fill-opacity:1.0000; stroke:none;">
<circle cx="184.1700" cy="72.0000" r="0.4000" /> 
</g>
<g style="fill:#000000; fill-opacity:1.0000; stroke:none;">
<circle cx="157.1700" cy="63.2500" r="0.5500" /> 
</g>
<g style="fill:#000000; fill-opacity:1.0000; stroke:none;">
<circle cx="167.3300" cy="63.2500" r="0.5500" /> 
</g>
<g style="fill:#000000; fill-opacity:1.0000; stroke:none;">
<circle cx="174.2200" cy="76.3300" r="0.4000" /> 
</g>
<g style="fill:#000000; fill-opacity:1.0000; stroke:none;">
<circle cx="174.2200" cy="73.8300" r="0.4000" /> 
</g>
<g style="fill:#000000; fill-opacity:1.0000; stroke:none;">
<circle cx="166.2200" cy="83.4100" r="0.4000" /> 
</g>
<g style="fill:#000000; fill-opacity:1.0000; stroke:none;">
<circle cx="166.2200" cy="73.2500" r="0.4000" /> 
</g>
<g style="fill:#000000; fill-opacity:1.0000; stroke:none;">
<circle cx="177.5600" cy="69.7500" r="0.4000" /> 
</g>
<g style="fill:#000000; fill-opacity:1.0000; stroke:none;">
<circle cx="169.9400" cy="69.7500" r="0.4000" /> 
</g>
<g style="fill:#000000; fill-opacity:1.0000; stroke:none;">
<circle cx="194.2500" cy="58.9200" r="0.4000" /> 
</g>
<g style="fill:#000000; fill-opacity:1.0000; stroke:none;">
<circle cx="194.2500" cy="69.0800" r="0.4000" /> 
</g>
<g style="fill:#000000; fill-opacity:1.0000; stroke:none;">
<circle cx="200.2750" cy="82.7500" r="0.4500" /> 
</g>
<g style="fill:#000000; fill-opacity:1.0000; stroke:none;">
<circle cx="197.7350" cy="82.7500" r="0.4500" /> 
</g>
<g style="fill:#000000; fill-opacity:1.0000; stroke:none;">
<circle cx="157.1700" cy="66.5000" r="0.5500" /> 
</g>
<g style="fill:#000000; fill-opacity:1.0000; stroke:none;">
<circle cx="167.3300" cy="66.5000" r="0.5500" /> 
</g>
<g style="fill:#000000; fill-opacity:1.0000; stroke:none;">
<circle cx="157.2500" cy="73.2500" r="0.4000" /> 
</g>
<g style="fill:#000000; fill-opacity:1.0000; stroke:none;">
<circle cx="157.2500" cy="83.4100" r="0.4000" /> 
</g>
<g style="fill:#000000; fill-opacity:1.0000; stroke:none;">
<circle cx="163.2500" cy="83.4100" r="0.4000" /> 
</g>
<g style="fill:#000000; fill-opacity:1.0000; stroke:none;">
<circle cx="163.2500" cy="73.2500" r="0.4000" /> 
</g>
<g style="fill:#000000; fill-opacity:1.0000; stroke:none;">
<circle cx="197.7250" cy="75.5000" r="0.4500" /> 
</g>
<g style="fill:#000000; fill-opacity:1.0000; stroke:none;">
<circle cx="200.2650" cy="75.5000" r="0.4500" /> 
</g>
<g style="fill:#000000; fill-opacity:1.0000; stroke:none;">
<circle cx="174.2200" cy="80.8300" r="0.4000" /> 
</g>
<g style="fill:#000000; fill-opacity:1.0000; stroke:none;">
<circle cx="174.2200" cy="83.3300" r="0.4000" /> 
</g>
<g style="fill:#000000; fill-opacity:1.0000; stroke:none;">
<circle cx="205.5000" cy="83.5000" r="1.6000" /> 
</g>
<g style="fill:#000000; fill-opacity:1.0000; stroke:none;">
<circle cx="194.2500" cy="85.3300" r="0.4000" /> 
</g>
<g style="fill:#000000; fill-opacity:1.0000; stroke:none;">
<circle cx="194.2500" cy="75.1700" r="0.4000" /> 
</g>
<g style="fill:#000000; fill-opacity:1.0000; stroke:none;">
<circle cx="172.2500" cy="63.0000" r="0.4000" /> 
</g>
<g style="fill:#000000; fill-opacity:1.0000; stroke:none;">
<circle cx="172.2500" cy="65.5000" r="0.4000" /> 
</g>
<g style="fill:#000000; fill-opacity:1.0000; stroke:none;">
<circle cx="160.2500" cy="83.4100" r="0.4000" /> 
</g>
<g style="fill:#000000; fill-opacity:1.0000; stroke:none;">
<circle cx="160.2500" cy="73.2500" r="0.4000" /> 
</g>
<g style="fill:#000000; fill-opacity:1.0000; stroke:none;">
<circle cx="169.2500" cy="73.2500" r="0.4000" /> 
</g>
<g style="fill:#000000; fill-opacity:1.0000; stroke:none;">
<circle cx="169.2500" cy="83.4100" r="0.4000" /> 
</g>
<g style="fill:#000000; fill-opacity:1.0000; stroke:none;">
<circle cx="154.0000" cy="80.1500" r="0.5000" /> 
</g>
<g style="fill:#000000; fill-opacity:1.0000; stroke:none;">
<circle cx="200.2750" cy="61.0000" r="0.4500" /> 
</g>
<g style="fill:#000000; fill-opacity:1.0000; stroke:none;">
<circle cx="197.7350" cy="61.0000" r="0.4500" /> 
</g>
<g style="fill:#000000; fill-opacity:1.0000; stroke:none;">
<circle cx="179.2500" cy="65.5000" r="0.4000" /> 
</g>
<g style="fill:#000000; fill-opacity:1.0000; stroke:none;">
<circle cx="179.2500" cy="63.0000" r="0.4000" /> 
</g>
<g style="fill:#000000; fill-opacity:1.0000; stroke:none;">
<circle cx="181.5000" cy="59.2500" r="0.4000" /> 
</g>
<g style="fill:#000000; fill-opacity:1.0000; stroke:none;">
<circle cx="176.5000" cy="59.2500" r="0.4000" /> 
</g>
<g style="fill:#FFFFFF; fill-opacity:1.0000; stroke:none;">
<circle cx="152.5000" cy="58.2500" r="1.6000" /> 
</g>
<g style="fill:#FFFFFF; fill-opacity:1.0000; stroke:none;">
<circle cx="197.7250" cy="68.2500" r="0.4500" /> 
</g>
<g style="fill:#FFFFFF; fill-opacity:1.0000; stroke:none;">
<circle cx="200.2650" cy="68.2500" r="0.4500" /> 
</g>
<g style="fill:#FFFFFF; fill-opacity:1.0000; stroke:none;">
<circle cx="183.9500" cy="60.2000" r="0.4000" /> 
</g>
<g style="fill:#FFFFFF; fill-opacity:1.0000; stroke:none;">
<circle cx="183.9500" cy="62.7400" r="0.4000" /> 
</g>
<g style="fill:#FFFFFF; fill-opacity:1.0000; stroke:none;">
<circle cx="183.9500" cy="65.2800" r="0.4000" /> 
</g>
<g style="fill:#FFFFFF; fill-opacity:1.0000; stroke:none;">
<circle cx="183.9500" cy="67.8200" r="0.4000" /> 
</g>
<g style="fill:#FFFFFF; fill-opacity:1.0000; stroke:none;">
<circle cx="191.5700" cy="67.8200" r="0.4000" /> 
</g>
<g style="fill:#FFFFFF; fill-opacity:1.0000; stroke:none;">
<circle cx="191.5700" cy="65.2800" r="0.4000" /> 
</g>
<g style="fill:#FFFFFF; fill-opacity:1.0000; stroke:none;">
<circle cx="191.5700" cy="62.7400" r="0.4000" /> 
</g>
<g style="fill:#FFFFFF; fill-opacity:1.0000; stroke:none;">
<circle cx="191.5700" cy="60.2000" r="0.4000" /> 
</g>
<g style="fill:#FFFFFF; fill-opacity:1.0000; stroke:none;">
<circle cx="167.3300" cy="69.7500" r="0.5500" /> 
</g>
<g style="fill:#FFFFFF; fill-opacity:1.0000; stroke:none;">
<circle cx="157.1700" cy="69.7500" r="0.5500" /> 
</g>
<g style="fill:#FFFFFF; fill-opacity:1.0000; stroke:none;">
<circle cx="154.0000" cy="63.4750" r="0.5000" /> 
</g>
<g style="fill:#FFFFFF; fill-opacity:1.0000; stroke:none;">
<circle cx="154.0000" cy="66.0150" r="0.5000" /> 
</g>
<g style="fill:#FFFFFF; fill-opacity:1.0000; stroke:none;">
<circle cx="191.3000" cy="84.5500" r="0.4000" /> 
</g>
<g style="fill:#FFFFFF; fill-opacity:1.0000; stroke:none;">
<circle cx="191.3000" cy="82.0100" r="0.4000" /> 
</g>
<g style="fill:#FFFFFF; fill-opacity:1.0000; stroke:none;">
<circle cx="191.3000" cy="79.4700" r="0.4000" /> 
</g>
<g style="fill:#FFFFFF; fill-opacity:1.0000; stroke:none;">
<circle cx="191.3000" cy="76.9300" r="0.4000" /> 
</g>
<g style="fill:#FFFFFF; fill-opacity:1.0000; stroke:none;">
<circle cx="183.6800" cy="76.9300" r="0.4000" /> 
</g>
<g style="fill:#FFFFFF; fill-opacity:1.0000; stroke:none;">
<circle cx="183.6800" cy="79.4700" r="0.4000" /> 
</g>
<g style="fill:#FFFFFF; fill-opacity:1.0000; stroke:none;">
<circle cx="183.6800" cy="82.0100" r="0.4000" /> 
</g>
<g style="fill:#FFFFFF; fill-opacity:1.0000; stroke:none;">
<circle cx="183.6800" cy="84.5500" r="0.4000" /> 
</g>
<g style="fill:#FFFFFF; fill-opacity:1.0000; stroke:none;">
<circle cx="179.2200" cy="76.5800" r="0.4000" /> 
</g>
<g style="fill:#FFFFFF; fill-opacity:1.0000; stroke:none;">
<circle cx="179.2200" cy="81.5800" r="0.4000" /> 
</g>
<g style="fill:#FFFFFF; fill-opacity:1.0000; stroke:none;">
<circle cx="154.0000" cy="75.5000" r="0.5000" /> 
</g>
<g style="fill:#FFFFFF; fill-opacity:1.0000; stroke:none;">
<circle cx="167.3300" cy="60.0000" r="0.5500" /> 
</g>
<g style="fill:#FFFFFF; fill-opacity:1.0000; stroke:none;">
<circle cx="157.1700" cy="60.0000" r="0.5500" /> 
</g>
<g style="fill:#FFFFFF; fill-opacity:1.0000; stroke:none;">
<circle cx="194.3300" cy="72.0000" r="0.4000" /> 
</g>
<g style="fill:#FFFFFF; fill-opacity:1.0000; stroke:none;">
<circle cx="184.1700" cy="72.0000" r="0.4000" /> 
</g>
<g style="fill:#FFFFFF; fill-opacity:1.0000; stroke:none;">
<circle cx="157.1700" cy="63.2500" r="0.5500" /> 
</g>
<g style="fill:#FFFFFF; fill-opacity:1.0000; stroke:none;">
<circle cx="167.3300" cy="63.2500" r="0.5500" /> 
</g>
<g style="fill:#FFFFFF; fill-opacity:1.0000; stroke:none;">
<circle cx="174.2200" cy="76.3300" r="0.4000" /> 
</g>
<g style="fill:#FFFFFF; fill-opacity:1.0000; stroke:none;">
<circle cx="174.2200" cy="73.8300" r="0.4000" /> 
</g>
<g style="fill:#FFFFFF; fill-opacity:1.0000; stroke:none;">
<circle cx="166.2200" cy="83.4100" r="0.4000" /> 
</g>
<g style="fill:#FFFFFF; fill-opacity:1.0000; stroke:none;">
<circle cx="166.2200" cy="73.2500" r="0.4000" /> 
</g>
<g style="fill:#FFFFFF; fill-opacity:1.0000; stroke:none;">
<circle cx="177.5600" cy="69.7500" r="0.4000" /> 
</g>
<g style="fill:#FFFFFF; fill-opacity:1.0000; stroke:none;">
<circle cx="169.9400" cy="69.7500" r="0.4000" /> 
</g>
<g style="fill:#FFFFFF; fill-opacity:1.0000; stroke:none;">
<circle cx="194.2500" cy="58.9200" r="0.4000" /> 
</g>
<g style="fill:#FFFFFF; fill-opacity:1.0000; stroke:none;">
<circle cx="194.2500" cy="69.0800" r="0.4000" /> 
</g>
<g style="fill:#FFFFFF; fill-opacity:1.0000; stroke:none;">
<circle cx="200.2750" cy="82.7500" r="0.4500" /> 
</g>
<g style="fill:#FFFFFF; fill-opacity:1.0000; stroke:none;">
<circle cx="197.7350" cy="82.7500" r="0.4500" /> 
</g>
<g style="fill:#FFFFFF; fill-opacity:1.0000; stroke:none;">
<circle cx="157.1700" cy="66.5000" r="0.5500" /> 
</g>
<g style="fill:#FFFFFF; fill-opacity:1.0000; stroke:none;">
<circle cx="167.3300" cy="66.5000" r="0.5500" /> 
</g>
<g style="fill:#FFFFFF; fill-opacity:1.0000; stroke:none;">
<circle cx="157.2500" cy="73.2500" r="0.4000" /> 
</g>
<g style="fill:#FFFFFF; fill-opacity:1.0000; stroke:none;">
<circle cx="157.2500" cy="83.4100" r="0.4000" /> 
</g>
<g style="fill:#FFFFFF; fill-opacity:1.0000; stroke:none;">
<circle cx="163.2500" cy="83.4100" r="0.4000" /> 
</g>
<g style="fill:#FFFFFF; fill-opacity:1.0000; stroke:none;">
<circle cx="163.2500" cy="73.2500" r="0.4000" /> 
</g>
<g style="fill:#FFFFFF; fill-opacity:1.0000; stroke:none;">
<circle cx="197.7250" cy="75.5000" r="0.4500" /> 
</g>
<g style="fill:#FFFFFF; fill-opacity:1.0000; stroke:none;">
<circle cx="200.2650" cy="75.5000" r="0.4500" /> 
</g>
<g style="fill:#FFFFFF; fill-opacity:1.0000; stroke:none;">
<circle cx="174.2200" cy="80.8300" r="0.4000" /> 
</g>
<g style="fill:#FFFFFF; fill-opacity:1.0000; stroke:none;">
<circle cx="174.2200" cy="83.3300" r="0.4000" /> 
</g>
<g style="fill:#FFFFFF; fill-opacity:1.0000; stroke:none;">
<circle cx="205.5000" cy="83.5000" r="1.6000" /> 
</g>
<g style="fill:#FFFFFF; fill-opacity:1.0000; stroke:none;">
<circle cx="194.2500" cy="85.3300" r="0.4000" /> 
</g>
<g style="fill:#FFFFFF; fill-opacity:1.0000; stroke:none;">
<circle cx="194.2500" cy="75.1700" r="0.4000" /> 
</g>
<g style="fill:#FFFFFF; fill-opacity:1.0000; stroke:none;">
<circle cx="172.2500" cy="63.0000" r="0.4000" /> 
</g>
<g style="fill:#FFFFFF; fill-opacity:1.0000; stroke:none;">
<circle cx="172.2500" cy="65.5000" r="0.4000" /> 
</g>
<g style="fill:#FFFFFF; fill-opacity:1.0000; stroke:none;">
<circle cx="160.2500" cy="83.4100" r="0.4000" /> 
</g>
<g style="fill:#FFFFFF; fill-opacity:1.0000; stroke:none;">
<circle cx="160.2500" cy="73.2500" r="0.4000" /> 
</g>
<g style="fill:#FFFFFF; fill-opacity:1.0000; stroke:none;">
<circle cx="169.2500" cy="73.2500" r="0.4000" /> 
</g>
<g style="fill:#FFFFFF; fill-opacity:1.0000; stroke:none;">
<circle cx="169.2500" cy="83.4100" r="0.4000" /> 
</g>
<g style="fill:#FFFFFF; fill-opacity:1.0000; stroke:none;">
<circle cx="154.0000" cy="80.1500" r="0.5000" /> 
</g>
<g style="fill:#FFFFFF; fill-opacity:1.0000; stroke:none;">
<circle cx="200.2750" cy="61.0000" r="0.4500" /> 
</g>
<g style="fill:#FFFFFF; fill-opacity:1.0000; stroke:none;">
<circle cx="197.7350" cy="61.0000" r="0.4500" /> 
</g>
<g style="fill:#FFFFFF; fill-opacity:1.0000; stroke:none;">
<circle cx="179.2500" cy="65.5000" r="0.4000" /> 
</g>
<g style="fill:#FFFFFF; fill-opacity:1.0000; stroke:none;">
<circle cx="179.2500" cy="63.0000" r="0.4000" /> 
</g>
<g style="fill:#FFFFFF; fill-opacity:1.0000; stroke:none;">
<circle cx="181.5000" cy="59.2500" r="0.4000" /> 
</g>
<g style="fill:#FFFFFF; fill-opacity:1.0000; stroke:none;">
<circle cx="176.5000" cy="59.2500" r="0.4000" /> 
</g> 
</svg>
